<svg width="12" height="12" viewBox="0 0 12 12" fill="none" xmlns="http://www.w3.org/2000/svg">
<path fill-rule="evenodd" clip-rule="evenodd" d="M0.75 8.625C0.75 8.83211 0.917893 9 1.125 9H9.96967L7.60983 11.3598C7.46339 11.5063 7.46339 11.7437 7.60983 11.8902C7.75628 12.0366 7.99372 12.0366 8.14017 11.8902L11.1402 8.89017C11.2866 8.74372 11.2866 8.50628 11.1402 8.35984L8.14017 5.35983C7.99372 5.21339 7.75628 5.21339 7.60983 5.35983C7.46339 5.50628 7.46339 5.74372 7.60983 5.89017L9.96967 8.25H1.125C0.917893 8.25 0.75 8.41789 0.75 8.625Z" fill="#FEFCFF"/>
<path fill-rule="evenodd" clip-rule="evenodd" d="M11.25 3.375C11.25 3.58211 11.0821 3.75 10.875 3.75L2.03033 3.75L4.39017 6.10983C4.53661 6.25628 4.53661 6.49372 4.39017 6.64017C4.24372 6.78661 4.00628 6.78661 3.85983 6.64017L0.859835 3.64017C0.713388 3.49372 0.713388 3.25628 0.859835 3.10984L3.85983 0.109835C4.00628 -0.0366117 4.24372 -0.0366117 4.39017 0.109835C4.53661 0.256282 4.53661 0.493719 4.39017 0.640166L2.03033 3L10.875 3C11.0821 3 11.25 3.16789 11.25 3.375Z" fill="#FEFCFF"/>
</svg>
