<svg width="23" height="23" viewBox="0 0 23 23" fill="none" xmlns="http://www.w3.org/2000/svg">
<path d="M12.5165 2.15632C11.9551 1.59495 11.0449 1.59494 10.4835 2.15632L0.929267 11.7106C0.648578 11.9913 0.648578 12.4464 0.929267 12.7271C1.20996 13.0077 1.66504 13.0077 1.94573 12.7271L11.5 3.17279L21.0543 12.7271C21.335 13.0077 21.79 13.0077 22.0707 12.7271C22.3514 12.4464 22.3514 11.9913 22.0707 11.7106L18.6875 8.32736V3.59382C18.6875 3.19687 18.3657 2.87507 17.9688 2.87507H16.5312C16.1343 2.87507 15.8125 3.19687 15.8125 3.59382V5.45236L12.5165 2.15632Z" fill="black"/>
<path d="M11.5 4.73361L20.125 13.3586V19.4063C20.125 20.5972 19.1596 21.5626 17.9688 21.5626H5.03125C3.84039 21.5626 2.875 20.5972 2.875 19.4063V13.3586L11.5 4.73361Z" fill="black"/>
</svg>
